<svg width="40" height="40" viewBox="0 0 40 40" fill="none" xmlns="http://www.w3.org/2000/svg">
<rect width="40" height="40" rx="8" fill="black"/>
<path d="M29.8552 12.0545C30.6797 12.1345 31.413 11.5309 31.493 10.7063C31.573 9.88174 30.9694 9.14846 30.1448 9.06849L29.8552 12.0545ZM30.1059 31.1974C30.9323 31.1389 31.5548 30.4215 31.4963 29.5952C31.4378 28.7688 30.7204 28.1464 29.8941 28.2049L30.1059 31.1974ZM26.7567 21.6092C27.5852 21.6092 28.2567 20.9376 28.2567 20.1092C28.2567 19.2808 27.5852 18.6092 26.7567 18.6092L26.7567 21.6092ZM30 10.5615C30.1448 9.06849 30.1446 9.06847 30.1443 9.06844C30.1441 9.06842 30.1438 9.06839 30.1434 9.06835C30.1426 9.06828 30.1416 9.06817 30.1402 9.06804C30.1374 9.06778 30.1335 9.0674 30.1283 9.0669C30.1181 9.06592 30.1031 9.06449 30.0834 9.06264C30.0442 9.05894 29.9867 9.05357 29.912 9.04674C29.7626 9.03308 29.5446 9.01359 29.2678 8.99003C28.7143 8.94293 27.9251 8.87954 26.9786 8.81401C25.0882 8.68314 22.5583 8.54291 20.0205 8.50814C17.5013 8.47363 14.9002 8.54146 12.8983 8.84754C11.9126 8.99824 10.9544 9.223 10.2036 9.58794C9.5099 9.92514 8.5 10.6428 8.5 11.9534L11.5 11.9534C11.5 12.4311 11.1151 12.4805 11.5151 12.2861C11.8581 12.1194 12.4624 11.949 13.3517 11.8131C15.0998 11.5458 17.4987 11.4739 19.9794 11.5079C22.4417 11.5416 24.9118 11.6781 26.7714 11.8068C27.6998 11.8711 28.4731 11.9333 29.0134 11.9792C29.2835 12.0022 29.4952 12.0211 29.6388 12.0343C29.7106 12.0408 29.7653 12.0459 29.8018 12.0494C29.82 12.0511 29.8337 12.0524 29.8426 12.0533C29.8471 12.0537 29.8504 12.054 29.8525 12.0542C29.8535 12.0543 29.8543 12.0544 29.8547 12.0544C29.855 12.0545 29.8551 12.0545 29.8552 12.0545C29.8552 12.0545 29.8552 12.0545 30 10.5615ZM8.5 11.9534C8.5 13.8737 8.97412 15.3799 9.38303 16.6495C9.80021 17.9448 10.1216 18.9283 10.1216 20.1092L13.1216 20.1092C13.1216 18.3806 12.6322 16.9521 12.2386 15.7298C11.8367 14.482 11.5 13.365 11.5 11.9534L8.5 11.9534ZM10.1216 20.1092C10.1216 21.2691 9.81148 22.1233 9.39768 23.2858C8.98203 24.4534 8.5 25.8483 8.5 27.7852L11.5 27.7852C11.5 26.3903 11.8288 25.4019 12.2239 24.2919C12.6209 23.1766 13.1216 21.8587 13.1216 20.1092L10.1216 20.1092ZM8.5 27.7852C8.5 29.0803 9.49034 29.8082 10.1755 30.1591C10.9205 30.5408 11.8747 30.7901 12.8606 30.9667C14.8612 31.325 17.4617 31.461 19.9813 31.4925C22.519 31.5242 25.049 31.4503 26.9395 31.3689C27.8861 31.3282 28.6753 31.2855 29.2288 31.2529C29.5056 31.2366 29.7236 31.2228 29.873 31.213C29.9478 31.2081 30.0053 31.2043 30.0446 31.2016C30.0642 31.2003 30.0792 31.1992 30.0895 31.1985C30.0946 31.1982 30.0986 31.1979 30.1013 31.1977C30.1027 31.1976 30.1038 31.1975 30.1045 31.1975C30.1049 31.1974 30.1053 31.1974 30.1055 31.1974C30.1057 31.1974 30.1059 31.1974 30 29.7011C29.8941 28.2049 29.8941 28.2049 29.8941 28.2049C29.894 28.2049 29.8939 28.2049 29.8936 28.2049C29.8932 28.2049 29.8925 28.205 29.8914 28.2051C29.8893 28.2052 29.886 28.2054 29.8815 28.2057C29.8726 28.2064 29.8589 28.2073 29.8407 28.2085C29.8042 28.211 29.7495 28.2147 29.6777 28.2194C29.5342 28.2288 29.3225 28.2421 29.0524 28.258C28.5122 28.2899 27.7389 28.3317 26.8105 28.3717C24.951 28.4517 22.481 28.5235 20.0187 28.4927C17.5383 28.4617 15.1388 28.327 13.3894 28.0137C12.5003 27.8544 11.892 27.6677 11.5433 27.4891C11.1347 27.2798 11.5 27.3231 11.5 27.7852L8.5 27.7852ZM11.6216 21.6092L26.7567 21.6092L26.7567 18.6092L11.6216 18.6092L11.6216 21.6092Z" fill="white"/>
</svg>
