<svg width="40" height="40" viewBox="0 0 40 40" fill="none" xmlns="http://www.w3.org/2000/svg">
<rect width="40" height="40" rx="8" fill="black"/>
<path d="M30 15.4048V15.5345C30 18.676 27.7017 21.3448 24.595 21.8108C21.5479 22.2678 18.4505 22.2786 15.4003 21.8429L13.9524 21.6361C13.4497 21.5642 13 21.9543 13 22.4621V25V27C13 27.8284 12.3284 28.5 11.5 28.5C10.6716 28.5 10 27.8284 10 27V20V15.4048C10 12.2982 12.2728 9.6591 15.345 9.19826C18.4311 8.73534 21.5689 8.73534 24.655 9.19826C27.7272 9.6591 30 12.2982 30 15.4048Z" fill="white"/>
<path d="M30 15.4048V15.5345C30 18.676 27.7017 21.3448 24.595 21.8108C21.5479 22.2678 18.4505 22.2786 15.4003 21.8429L13.9524 21.6361C13.4497 21.5642 13 21.9543 13 22.4621V25V27C13 27.8284 12.3284 28.5 11.5 28.5C10.6716 28.5 10 27.8284 10 27V20V15.4048C10 12.2982 12.2728 9.6591 15.345 9.19826C18.4311 8.73534 21.5689 8.73534 24.655 9.19826C27.7272 9.6591 30 12.2982 30 15.4048Z" stroke="white"/>
<path d="M24.591 18.6883C21.5968 19.5438 18.4032 19.5438 15.409 18.6883C13.9862 18.2818 13 16.9798 13 15.5C13 14.0202 13.9862 12.7182 15.409 12.3117C18.4032 11.4562 21.5968 11.4562 24.591 12.3117C26.0138 12.7182 27 14.0202 27 15.5C27 16.9798 26.0138 18.2818 24.591 18.6883Z" fill="black"/>
</svg>
